<?xml version="1.0" encoding="utf-8"?>
<!-- Generator: Adobe Illustrator 21.1.0, SVG Export Plug-In . SVG Version: 6.00 Build 0)  -->
<svg version="1.1" id="Design" xmlns="http://www.w3.org/2000/svg" xmlns:xlink="http://www.w3.org/1999/xlink" x="0px" y="0px"
	 viewBox="0 0 50.2 65.6" style="enable-background:new 0 0 50.2 65.6;" xml:space="preserve">
<style type="text/css">
	.st1{fill:#003B6D;}
	.st0{fill:#FFFFFF;}
</style>
<g>
	<g>
		<path class="st0" d="M2.8,65.5c-0.8,0-1.6-0.2-2-0.4l0.4-0.9c0.3,0.2,0.9,0.3,1.4,0.3c1,0,1.4-0.5,1.4-1.3v-0.4
			C3.7,63,3.3,63,2.8,63c-1.4,0-2.4-1.1-2.4-2.9c0-1.9,1-3.2,2.9-3.2c0.9,0,1.5,0.2,1.9,0.4v5.7C5.2,64.6,4.2,65.5,2.8,65.5z
			 M3.9,57.9c-0.2-0.1-0.4-0.1-0.7-0.1c-1,0-1.5,0.9-1.5,2.3c0,1.4,0.4,2.2,1.4,2.2c0.3,0,0.6-0.1,0.8-0.2V57.9z"/>
		<path class="st0" d="M6.4,63v-8.6h1.3V63H6.4z"/>
		<path class="st0" d="M11.2,63.1c-1.6,0-2.3-0.7-2.3-2v-4h1.3v4.1c0,0.6,0.3,1,1,1c0.4,0,0.7-0.1,0.9-0.2v-4.9h1.3v5.5
			C13,62.9,12.2,63.1,11.2,63.1z"/>
		<path class="st0" d="M16.6,63c-1.2,0-1.6-0.8-1.6-1.6v-3.5h-0.7v-0.9H15v-1.3l1.3-0.4v1.7h1v0.9h-1v3.4c0,0.5,0.2,0.8,0.6,0.8
			c0.1,0,0.2,0,0.3-0.1v0.8C17.1,63,16.9,63,16.6,63z"/>
		<path class="st0" d="M19.1,60.5c0.1,1.1,0.6,1.6,1.6,1.6c0.7,0,1.2-0.2,1.5-0.3l0.3,0.8c-0.4,0.2-1,0.4-1.9,0.4
			c-1.7,0-2.7-1.1-2.7-3.1c0-1.9,1-3,2.5-3c1.6,0,2.4,1,2.4,3L19.1,60.5z M20.3,57.8c-0.8,0-1.3,0.6-1.3,2l2.4-0.4
			C21.5,58.3,21.1,57.8,20.3,57.8z"/>
		<path class="st0" d="M27,63v-4.2c0-0.5-0.2-1-1.1-1c-0.4,0-0.7,0.1-0.9,0.2v5h-1.3v-5.6C24.2,57.1,25,57,26,57
			c1.8,0,2.3,0.9,2.3,1.8V63H27z"/>
		<path class="st0" d="M29.3,59.8v-1H32v1H29.3z"/>
		<path class="st0" d="M34.7,57.9v5h-1.3v-5h-0.7v-0.9h0.7v-0.7c0-1.3,0.9-2.1,2.3-2v0.9c-0.6,0-1,0.2-1,1v0.8h1v0.9H34.7z"/>
		<path class="st0" d="M39,58c-0.4-0.2-0.9-0.1-1.2,0v5h-1.3v-5.6c0.6-0.3,1.4-0.5,2.8-0.4L39,58z"/>
		<path class="st0" d="M40.9,60.5c0.1,1.1,0.6,1.6,1.6,1.6c0.7,0,1.2-0.2,1.5-0.3l0.3,0.8c-0.4,0.2-1,0.4-1.9,0.4
			c-1.7,0-2.7-1.1-2.7-3.1c0-1.9,1-3,2.5-3c1.6,0,2.4,1,2.4,3L40.9,60.5z M42.1,57.8c-0.8,0-1.3,0.6-1.3,2l2.4-0.4
			C43.2,58.3,42.8,57.8,42.1,57.8z"/>
		<path class="st0" d="M46.5,60.5c0.1,1.1,0.6,1.6,1.6,1.6c0.7,0,1.2-0.2,1.5-0.3l0.3,0.8c-0.4,0.2-1,0.4-1.9,0.4
			c-1.7,0-2.7-1.1-2.7-3.1c0-1.9,1-3,2.5-3c1.6,0,2.4,1,2.4,3L46.5,60.5z M47.7,57.8c-0.8,0-1.3,0.6-1.3,2l2.4-0.4
			C48.8,58.3,48.4,57.8,47.7,57.8z"/>
	</g>
	<g>
		<g>
			<path class="st0" d="M49.6,24.5C49.6,38,38.6,49,25.1,49C11.6,49,0.6,38,0.6,24.5C0.6,11,11.6,0,25.1,0C38.6,0,49.6,11,49.6,24.5
				"/>
		</g>
		<g>
			<path class="st1" d="M19.1,20.1c-0.3,0-0.6-0.2-0.6-0.6v-8.5c0-0.3,0.3-0.6,0.6-0.6c0.3,0,0.6,0.2,0.6,0.6v8.5
				C19.7,19.9,19.4,20.1,19.1,20.1"/>
		</g>
		<g>
			<path class="st1" d="M22.1,16.8c-0.3,0-0.6-0.2-0.6-0.6V7.9c0-0.3,0.3-0.6,0.6-0.6c0.3,0,0.6,0.2,0.6,0.6v8.4
				C22.7,16.5,22.4,16.8,22.1,16.8"/>
		</g>
		<g>
			<path class="st1" d="M31.1,20.1c-0.3,0-0.6-0.2-0.6-0.6v-8.5c0-0.3,0.3-0.6,0.6-0.6c0.3,0,0.6,0.2,0.6,0.6v8.5
				C31.7,19.9,31.4,20.1,31.1,20.1"/>
		</g>
		<g>
			<path class="st1" d="M28.1,16.8c-0.3,0-0.6-0.2-0.6-0.6V7.9c0-0.3,0.3-0.6,0.6-0.6c0.3,0,0.6,0.2,0.6,0.6v8.4
				C28.7,16.5,28.4,16.8,28.1,16.8"/>
		</g>
		<g>
			<path class="st1" d="M25.1,12.7c-0.3,0-0.6-0.3-0.6-0.6V4.1c0-0.3,0.2-0.6,0.6-0.6c0.3,0,0.6,0.2,0.6,0.6v8.1
				C25.7,12.5,25.4,12.7,25.1,12.7"/>
		</g>
		<g>
			<path class="st1" d="M25.1,22.6c-1.3,0-2.4-0.9-2.4-2.1c0-0.9,1.4-4.5,1.8-5.5c0.1-0.2,0.3-0.4,0.5-0.4c0.2,0,0.4,0.1,0.5,0.4
				c0.4,1.1,1.8,4.7,1.8,5.5C27.5,21.7,26.4,22.6,25.1,22.6"/>
		</g>
		<g>
			<path class="st1" d="M27.7,27.4c-0.7,0-1.4-0.4-1.9-1c-0.4-0.5-0.6-1.2-0.5-1.8c0.1-0.5,0.3-1,0.7-1.3c0.7-0.5,4.4-1.6,5.5-1.9
				c0.2-0.1,0.5,0,0.6,0.2c0.1,0.2,0.2,0.4,0,0.6c-0.6,1-2.6,4.3-3.3,4.8C28.6,27.2,28.2,27.4,27.7,27.4"/>
		</g>
		<g>
			<path class="st1" d="M22.5,27.4L22.5,27.4c-0.4,0-0.8-0.1-1.2-0.4c-0.7-0.5-2.7-3.8-3.3-4.8c-0.1-0.2-0.1-0.4,0-0.6
				c0.1-0.2,0.4-0.3,0.6-0.2c1.1,0.3,4.8,1.4,5.5,1.9c0.4,0.3,0.7,0.8,0.7,1.3c0.1,0.6-0.1,1.3-0.5,1.8C24,27,23.2,27.4,22.5,27.4"
				/>
		</g>
		<g>
			<path class="st1" d="M27.7,32.6c-0.7,0-1.4-0.4-1.9-1c-0.4-0.5-0.6-1.2-0.5-1.8c0.1-0.5,0.3-1,0.7-1.3c0.7-0.5,4.4-1.6,5.5-1.9
				c0.2-0.1,0.5,0,0.6,0.2c0.1,0.2,0.2,0.4,0,0.6c-0.6,1-2.6,4.3-3.3,4.8C28.6,32.5,28.2,32.6,27.7,32.6"/>
		</g>
		<g>
			<path class="st1" d="M22.5,32.6L22.5,32.6c-0.4,0-0.8-0.1-1.2-0.4c-0.7-0.5-2.7-3.8-3.3-4.8c-0.1-0.2-0.1-0.4,0-0.6
				c0.1-0.2,0.4-0.3,0.6-0.2c1.1,0.3,4.8,1.4,5.5,1.9c0.4,0.3,0.7,0.8,0.7,1.3c0.1,0.6-0.1,1.3-0.5,1.8C24,32.3,23.2,32.6,22.5,32.6
				"/>
		</g>
		<g>
			<path class="st1" d="M27.7,37.9c-0.7,0-1.4-0.4-1.9-1c-0.4-0.5-0.6-1.2-0.5-1.8c0.1-0.5,0.3-1,0.7-1.3c0.7-0.5,4.4-1.6,5.5-1.9
				c0.2-0.1,0.5,0,0.6,0.2c0.1,0.2,0.2,0.4,0,0.6c-0.6,1-2.6,4.3-3.3,4.8C28.6,37.8,28.2,37.9,27.7,37.9"/>
		</g>
		<g>
			<path class="st1" d="M22.5,37.9L22.5,37.9c-0.4,0-0.8-0.1-1.2-0.4c-0.7-0.5-2.7-3.8-3.3-4.8c-0.1-0.2-0.1-0.4,0-0.6
				c0.1-0.2,0.4-0.3,0.6-0.2c1.1,0.3,4.8,1.4,5.5,1.9c0.4,0.3,0.7,0.8,0.7,1.3c0.1,0.6-0.1,1.3-0.5,1.8C24,37.6,23.2,37.9,22.5,37.9
				"/>
		</g>
		<g>
			<path class="st1" d="M25.1,45.7c-0.3,0-0.6-0.3-0.6-0.6v-6.7c0-0.3,0.2-0.6,0.6-0.6c0.3,0,0.6,0.2,0.6,0.6v6.7
				C25.7,45.5,25.4,45.7,25.1,45.7"/>
		</g>
		<g>
			<rect x="0" y="23.8" transform="matrix(0.6557 -0.755 0.755 0.6557 -9.8934 27.6776)" class="st1" width="50.7" height="1.7"/>
		</g>
	</g>
</g>
</svg>
