<?xml version="1.0" encoding="utf-8"?>
<!-- Generator: Adobe Illustrator 21.1.0, SVG Export Plug-In . SVG Version: 6.00 Build 0)  -->
<svg version="1.1" id="Design" xmlns="http://www.w3.org/2000/svg" xmlns:xlink="http://www.w3.org/1999/xlink" x="0px" y="0px"
	 viewBox="0 0 52.6 65.5" style="enable-background:new 0 0 52.6 65.5;" xml:space="preserve">
<style type="text/css">
	.st1{fill:#003B6D;}
	.st0{fill:#FFFFFF;}
</style>
<g>
	<path class="st0" d="M0.6,63v-8.6h1.3V63H0.6z"/>
	<path class="st0" d="M5.3,63.1c-1.6,0-2.4-0.7-2.4-1.8c0-1.6,1.5-2,3.3-2.2v-0.3c0-0.8-0.5-1-1.2-1c-0.6,0-1.1,0.2-1.5,0.4
		l-0.3-0.8c0.4-0.2,1.1-0.4,2-0.4c1.2,0,2.2,0.5,2.2,2v3.6C6.9,62.9,6.2,63.1,5.3,63.1z M6.1,59.8c-1.3,0.2-2,0.4-2,1.5
		c0,0.8,0.5,1.1,1.2,1.1c0.3,0,0.6-0.1,0.8-0.2V59.8z"/>
	<path class="st0" d="M10.6,63.1c-1.3,0-2.3-1.1-2.3-3.1c0-2,1-3,2.3-3c0.7,0,1.1,0.2,1.4,0.4l-0.3,0.8c-0.2-0.1-0.4-0.3-0.8-0.3
		c-0.9,0-1.3,0.8-1.3,2.1c0,1.3,0.4,2.1,1.3,2.1c0.4,0,0.6-0.1,0.8-0.3l0.3,0.8C11.8,62.9,11.4,63.1,10.6,63.1z"/>
	<path class="st0" d="M14.8,63c-1.2,0-1.6-0.8-1.6-1.6v-3.5h-0.7v-0.9h0.7v-1.3l1.3-0.4v1.7h1v0.9h-1v3.4c0,0.5,0.2,0.8,0.6,0.8
		c0.1,0,0.2,0,0.3-0.1v0.8C15.3,63,15.1,63,14.8,63z"/>
	<path class="st0" d="M18.5,63.1c-1.6,0-2.4-1.3-2.4-3c0-1.8,0.8-3.1,2.4-3.1c1.7,0,2.4,1.3,2.4,3.1C21,61.8,20.2,63.1,18.5,63.1z
		 M18.5,57.8c-0.9,0-1.1,1.1-1.1,2.2c0,1.1,0.2,2.2,1.1,2.2c1,0,1.1-1,1.1-2.2C19.6,58.9,19.5,57.8,18.5,57.8z"/>
	<path class="st0" d="M23.2,63.1c-0.7,0-1.3-0.2-1.6-0.4l0.3-0.9c0.2,0.2,0.6,0.3,1.1,0.3c0.5,0,0.9-0.3,0.9-0.8
		c0-0.5-0.3-0.7-0.9-1c-1.1-0.4-1.3-1-1.3-1.7c0-0.9,0.7-1.7,1.9-1.7c0.7,0,1.1,0.2,1.5,0.4l-0.3,0.8c-0.2-0.1-0.5-0.3-0.9-0.3
		c-0.5,0-0.8,0.4-0.8,0.8c0,0.5,0.4,0.7,0.9,0.9c1.1,0.5,1.4,1,1.4,1.7C25.3,62.3,24.4,63.1,23.2,63.1z"/>
	<path class="st0" d="M27.2,60.5c0.1,1.1,0.6,1.6,1.6,1.6c0.7,0,1.2-0.2,1.5-0.3l0.3,0.8c-0.4,0.2-1,0.4-1.9,0.4
		c-1.7,0-2.7-1.1-2.7-3.1c0-1.9,1-3,2.5-3c1.6,0,2.4,1,2.4,3L27.2,60.5z M28.4,57.8c-0.8,0-1.3,0.6-1.3,2l2.4-0.4
		C29.6,58.3,29.1,57.8,28.4,57.8z"/>
	<path class="st0" d="M31.6,59.8v-1h2.7v1H31.6z"/>
	<path class="st0" d="M37,57.9v5h-1.3v-5H35v-0.9h0.7v-0.7c0-1.3,0.9-2.1,2.3-2v0.9c-0.6,0-1,0.2-1,1v0.8h1v0.9H37z"/>
	<path class="st0" d="M41.2,58c-0.4-0.2-0.9-0.1-1.2,0v5h-1.3v-5.6c0.6-0.3,1.4-0.5,2.8-0.4L41.2,58z"/>
	<path class="st0" d="M43.1,60.5c0.1,1.1,0.6,1.6,1.6,1.6c0.7,0,1.2-0.2,1.5-0.3l0.3,0.8c-0.4,0.2-1,0.4-1.9,0.4
		c-1.7,0-2.7-1.1-2.7-3.1c0-1.9,1-3,2.5-3c1.6,0,2.4,1,2.4,3L43.1,60.5z M44.3,57.8c-0.8,0-1.3,0.6-1.3,2l2.4-0.4
		C45.5,58.3,45.1,57.8,44.3,57.8z"/>
	<path class="st0" d="M48.7,60.5c0.1,1.1,0.6,1.6,1.6,1.6c0.7,0,1.2-0.2,1.5-0.3l0.3,0.8c-0.4,0.2-1,0.4-1.9,0.4
		c-1.7,0-2.7-1.1-2.7-3.1c0-1.9,1-3,2.5-3c1.6,0,2.4,1,2.4,3L48.7,60.5z M49.9,57.8c-0.8,0-1.3,0.6-1.3,2l2.4-0.4
		C51.1,58.3,50.7,57.8,49.9,57.8z"/>
</g>
<g>
	<g>
		<path class="st0" d="M50.7,24.5C50.7,38,39.7,49,26.2,49C12.7,49,1.7,38,1.7,24.5C1.7,11,12.7,0,26.2,0C39.7,0,50.7,11,50.7,24.5"
			/>
	</g>
	<g>
		<rect x="1.1" y="23.8" transform="matrix(0.6557 -0.755 0.755 0.6557 -9.5188 28.4978)" class="st1" width="50.7" height="1.7"/>
	</g>
	<g>
		<polygon class="st1" points="30.3,12.6 20.4,11.3 17.1,15.5 27.3,17.2 		"/>
	</g>
	<g>
		<polygon class="st1" points="16.7,16.9 16.7,39.7 27.4,42.2 27.4,18.8 		"/>
	</g>
	<g>
		<polygon class="st1" points="35.7,17.1 28.9,18.7 28.9,41.9 35.7,39.3 		"/>
	</g>
	<g>
		<polygon class="st1" points="35,15.7 32,12.6 29.2,17.1 		"/>
	</g>
	<g>
		<polygon class="st1" points="31.1,8.4 20.8,7.2 20.8,9.8 31.1,11.2 		"/>
	</g>
</g>
</svg>
